<svg xmlns="http://www.w3.org/2000/svg" style="display: none;"><symbol id="cocktail" viewBox="0 0 512.011 512.011"><title>cocktail</title><g> <path style="fill-rule:evenodd;clip-rule:evenodd;fill:#FFECD1;" d="M315.723,102.011h56.568l57.883-57.883 c7.779-7.778,7.779-20.506,0-28.284c-7.778-7.779-20.505-7.779-28.284,0L315.723,102.011z"/> <polygon style="fill-rule:evenodd;clip-rule:evenodd;fill:#FFECD1;" points="372.292,102.011 315.723,102.011 258.829,158.906 315.397,158.906 "/> <path style="fill-rule:evenodd;clip-rule:evenodd;fill:#EEF2F2;" d="M372.292,102.011l-56.894,56.895h98.921l9.106-8.451 c7.522-5.847,12.584-16.774,12.584-29.289c0-7.112-1.636-13.709-4.427-19.155H372.292z"/> <path style="fill-rule:evenodd;clip-rule:evenodd;fill:#EEF2F2;" d="M258.829,158.906l56.895-56.895H80.454 c-7.873,15.32-5.012,36.317,6.391,46.894l10.776,10H258.829z"/> <path style="fill-rule:evenodd;clip-rule:evenodd;fill:#FF9256;" d="M258.829,158.906H97.622l143.679,133.336 c8.368,8.097,19.955,8.703,28.927,0.381l144.09-133.718h-98.921H258.829L258.829,158.906z M256.008,192.215 c14.359,0,26,11.641,26,26c0,14.359-11.641,26-26,26c-14.359,0-26-11.641-26-26C230.009,203.856,241.649,192.215,256.008,192.215z "/> <circle style="fill-rule:evenodd;clip-rule:evenodd;fill:#FF6977;" cx="256.008" cy="218.215" r="26"/> <path style="fill-rule:evenodd;clip-rule:evenodd;fill:#EEF2F2;" d="M249.093,430.955l-72.625,49.709 c-5.362,3.668-6.707,10.95-3.005,16.263c2.288,3.282,5.967,5.045,9.709,5.049l145.638,0.037c6.536,0,11.836-5.251,11.836-11.728 c0-4.341-2.38-8.13-5.917-10.158l-72.033-49.304C258.476,427.936,253.028,428.147,249.093,430.955z"/> </g><g> <path d="M431.582,92.011h-35.148l40.812-40.812c5.651-5.65,8.765-13.184,8.765-21.213c0-8.029-3.112-15.563-8.764-21.213 c-11.698-11.697-30.73-11.695-42.427,0L311.58,92.011H180.455c-5.522,0-10,4.477-10,10s4.478,10,10,10h111.126l-36.895,36.895 h-153.14l-7.9-7.332c-6.944-6.441-9.411-18.963-6.418-29.563h13.227c5.522,0,10-4.477,10-10s-4.478-10-10-10h-20 c-3.748,0-7.181,2.096-8.894,5.429c-9.939,19.338-6.213,45.165,8.481,58.796l154.386,143.272c3.531,3.395,7.466,5.841,11.58,7.339 v114.323c-0.904,0.463-1.786,0.983-2.631,1.579l-72.557,49.662c-4.816,3.295-8.047,8.262-9.095,13.985 c-1.046,5.709,0.209,11.479,3.532,16.249c4.066,5.836,10.76,9.324,17.91,9.331l145.641,0.037c12.04,0,21.836-9.747,21.836-21.728 c0-7.595-4.029-14.679-10.548-18.601l-71.757-49.114c-0.752-0.515-1.535-0.962-2.332-1.372V306.808 c3.896-1.433,7.634-3.712,11.022-6.854l34.795-32.291c4.048-3.756,4.284-10.083,0.527-14.132 c-3.758-4.049-10.084-4.284-14.133-0.528l-34.792,32.289c-4.846,4.493-10.375,4.407-15.175-0.236 c-0.05-0.048-0.1-0.096-0.151-0.144L123.098,168.906h135.726c0.003,0,0.007,0,0.01,0h130.007l-31.981,29.679 c-4.048,3.757-4.284,10.084-0.527,14.132c1.971,2.123,4.647,3.198,7.332,3.198c2.435,0,4.875-0.884,6.8-2.67l59.469-55.187 c10.075-8.048,16.075-21.797,16.075-36.892c0-8.459-1.911-16.66-5.527-23.716C438.77,94.111,435.334,92.011,431.582,92.011z M329.08,488.378c0.22,0.15,0.444,0.292,0.675,0.423c0.209,0.12,0.891,0.581,0.891,1.482c0,0.953-0.823,1.728-1.833,1.728 l-145.632-0.037c-0.295,0-1.032-0.075-1.514-0.765c-0.32-0.46-0.322-0.913-0.268-1.212c0.057-0.309,0.227-0.747,0.717-1.082 l72.625-49.709c0.054-0.037,0.106-0.074,0.16-0.112c0.29-0.207,0.682-0.347,1.1-0.347c0.345,0,0.708,0.095,1.045,0.326 L329.08,488.378z M408.962,22.915c1.873-1.874,4.384-2.905,7.07-2.905s5.198,1.032,7.072,2.905 c1.873,1.874,2.904,4.384,2.904,7.07c0,2.687-1.031,5.197-2.905,7.071l-54.954,54.955h-28.283L408.962,22.915z M319.866,112.011 h28.283l-36.894,36.895h-28.283L319.866,112.011z M417.288,142.559c-0.229,0.179-0.452,0.368-0.666,0.565l-6.229,5.781h-70.853 l36.894-36.895h48.358c0.803,2.881,1.217,5.972,1.217,9.155C426.008,130.044,422.586,138.442,417.288,142.559z"/> <path d="M220.008,218.215c0,19.851,16.149,36,36,36s36-16.149,36-36s-16.149-36-36-36S220.008,198.365,220.008,218.215z M272.008,218.215c0,8.822-7.178,16-16,16c-8.822,0-16-7.178-16-16s7.178-16,16-16 C264.831,202.215,272.008,209.393,272.008,218.215z"/> <path d="M140.459,112.011c5.522,0,10-4.477,10-10s-4.478-10-10-10h-0.007c-5.522,0-9.996,4.477-9.996,10 S134.936,112.011,140.459,112.011z"/> <path d="M327.588,225.748l-0.006,0.005c-4.071,3.732-4.344,10.055-0.611,14.126c1.972,2.151,4.667,3.241,7.373,3.241 c2.415,0,4.838-0.869,6.758-2.629c4.071-3.732,4.347-10.058,0.614-14.129C337.985,222.292,331.658,222.015,327.588,225.748z"/> </g></symbol></svg>